<svg xmlns="http://www.w3.org/2000/svg"  viewBox="0 0 48 48" width="48px" height="48px"><rect width="30" height="38" x="9" y="5" fill="#3ddab4"/><path fill="#f5bc00" d="M9,40H8c-2.206,0-4-1.794-4-4s1.794-4,4-4h5v3H8c-0.551,0-1,0.449-1,1s0.449,1,1,1h1V40z"/><path fill="#f5bc00" d="M9,28H8c-2.206,0-4-1.794-4-4s1.794-4,4-4h5v3H8c-0.551,0-1,0.449-1,1s0.449,1,1,1h1V28z"/><path fill="#f5bc00" d="M9,17H8c-2.206,0-4-1.794-4-4s1.794-4,4-4h5v3H8c-0.551,0-1,0.449-1,1s0.449,1,1,1h1V17z"/><rect width="4" height="3" x="9" y="32" fill="#eb7900"/><rect width="4" height="3" x="9" y="20" fill="#eb7900"/><rect width="4" height="3" x="9" y="9" fill="#eb7900"/><path fill="#c1f5ea" d="M33.996,24.415C33.949,19.767,30.158,16,25.5,16c-4.687,0-8.5,3.813-8.5,8.5s3.813,8.5,8.5,8.5v-2	c-3.584,0-6.5-2.916-6.5-6.5s2.916-6.5,6.5-6.5s6.5,2.916,6.5,6.5V27c0,0.551-0.448,1-1,1s-1-0.449-1-1v-2.5	c0-2.481-2.019-4.5-4.5-4.5S21,22.019,21,24.5s2.019,4.5,4.5,4.5c1.02,0,1.951-0.354,2.707-0.928C28.64,29.196,29.724,30,31,30	c1.654,0,3-1.346,3-3v-2.585H33.996z M25.5,27c-1.379,0-2.5-1.122-2.5-2.5s1.121-2.5,2.5-2.5s2.5,1.122,2.5,2.5S26.879,27,25.5,27z"/></svg>